Coordinates
version=1
nRows=19
nColumns=36
inDegrees=yes

Units are S.I. units (second, meters, Newtons, ...)
If the header above contains a line with 'inDegrees', this indicates whether rotational values are in degrees (yes) or radians (no).

endheader
time	pelvis_tilt	pelvis_list	pelvis_rotation	pelvis_tx	pelvis_ty	pelvis_tz	hip_flexion_r	hip_adduction_r	hip_rotation_r	knee_angle_r	knee_angle_r_beta	ankle_angle_r	subtalar_angle_r	mtp_angle_r	hip_flexion_l	hip_adduction_l	hip_rotation_l	knee_angle_l	knee_angle_l_beta	ankle_angle_l	subtalar_angle_l	mtp_angle_l	lumbar_extension	lumbar_bending	lumbar_rotation	arm_flex_r	arm_add_r	arm_rot_r	elbow_flex_r	pro_sup_r	arm_flex_l	arm_add_l	arm_rot_l	elbow_flex_l	pro_sup_l
      0.00000000	     -2.97846096	     -1.27785486	     14.70906864	     -0.95335676	      1.26036116	     -0.06832784	      0.73824716	      3.20730986	     -3.44525533	      4.32055602	      0.07540793	      2.14660427	    -22.94790223	     -6.30366777	      3.49457278	     -0.36749473	      8.39596826	      4.75321350	      0.08295923	      7.90470259	     -6.41627922	     -6.30366777	     -6.05925103	      1.98314144	      4.29207175	     33.25964162	      2.13100249	     72.18315198	     77.32463116	     96.60366366	     31.01554662	      8.05723988	     90.57742561	     88.26974562	     85.09682155
      0.00416670	     -3.65740029	     -1.28798519	     14.63751886	     -0.94644677	      1.25827144	     -0.07254393	      0.90737556	      3.22919987	     -4.53686581	      3.63257373	      0.06340037	      2.89941747	    -20.24560913	     -6.37449315	      3.16628536	      0.23577095	      9.89474374	      3.45032885	      0.06021960	      6.81426543	     -6.15648225	     -6.37449315	     -5.73771643	      1.95608186	      4.89177708	     33.38591231	      2.23432838	     75.48418281	     78.52706055	     96.11181904	     32.26286386	      7.33916665	     94.78773917	     90.33550885	     85.39898422
      0.00833330	     -3.58511567	     -0.76530940	     14.12324064	     -0.94686575	      1.25871179	     -0.07149816	      0.25128309	      2.79296664	     -5.36360822	      2.84804837	      0.04970782	      2.75301524	    -19.84798341	     -6.53504463	      2.32368629	      0.74144496	      9.57839823	      2.58130373	      0.04505225	      7.13847984	     -5.05895826	     -6.53504463	     -6.27820737	      1.37513005	      6.14917252	     32.75789109	      1.62518627	     76.63684563	     79.31326554	     93.85924651	     32.59176120	      6.68017063	     95.69827472	     91.58191541	     82.53664783
      0.01250000	     -2.95845831	     -0.37615007	     13.80301226	     -0.94694040	      1.26018130	     -0.07068025	     -0.66805332	      2.54670532	     -5.73000839	      2.37391067	      0.04143256	      2.82379618	    -19.57672783	     -6.62737477	      0.93053416	      1.02322076	     10.06619443	      1.43157383	      0.02498568	      6.86108703	     -5.27491955	     -6.62737477	     -7.48315294	      1.03628532	      7.21486437	     32.79341934	      1.37109503	     77.58107419	     79.48696887	     92.29995097	     33.18248667	      7.12143141	     96.48579001	     91.81566424	     80.22387729
      0.01666670	     -3.02042068	     -0.33280677	     13.21565074	     -0.95414239	      1.26056281	     -0.06517647	     -0.37442399	      2.56876283	     -5.73207192	      2.22309772	      0.03880037	      3.03872243	    -19.23046293	     -6.80312838	      0.94451241	      1.08267908	     10.25010378	      1.03052005	      0.01798597	      6.72738628	     -5.45926854	     -6.80312838	     -7.86513922	      0.79085381	      8.75080912	     33.18577284	      1.23536776	     77.39890944	     78.77666317	     86.97110961	     33.88931401	      8.00040547	     97.57641380	     91.89397496	     69.71572017
      0.02083330	     -3.01362217	     -0.34501408	     12.77058490	     -0.95417072	      1.26046364	     -0.06459758	     -0.18946872	      2.68100366	     -5.45621178	      2.11957198	      0.03699351	      2.91315117	    -19.32738657	     -7.01104148	      1.02576778	      0.99022241	     10.39619572	      0.85015614	      0.01483802	      6.48267459	     -5.87233534	     -7.01104148	     -8.06809051	      0.75187703	      9.46510224	     33.65739632	      1.40850492	     77.91148596	     77.74515542	     83.46382725	     34.06428378	      8.50113024	     97.70064008	     91.96194314	     67.20607187
      0.02500000	     -3.26691937	     -0.39686900	     12.58022860	     -0.96084371	      1.26015999	     -0.06882014	      0.44516023	      2.58685441	     -5.55858398	      2.25031985	      0.03927549	      2.96200739	    -19.32462546	     -7.11000505	      1.51541631	      1.09369215	     10.82470230	      0.79873755	      0.01394060	      6.11584879	     -6.59281334	     -7.11000505	     -8.18090367	      0.81779814	      9.93254377	     34.23622271	      1.13973377	     77.45528343	     77.41834745	     81.10571870	     34.26570941	      8.98535171	     97.71195577	     92.08502237	     62.78294216
      0.02916670	     -3.24428766	     -0.47094184	     12.36736973	     -0.95430848	      1.25990706	     -0.06423119	      0.52739559	      2.74471986	     -5.51085936	      2.20648943	      0.03851051	      2.93616240	    -19.27538717	     -7.11043245	      1.53419636	      0.92925743	     10.89269185	      0.79627043	      0.01389754	      6.07807336	     -6.57092688	     -7.11043245	     -8.28886070	      0.68106551	      9.99705262	     34.42226191	      1.24425605	     77.32156812	     77.39957607	     81.08354620	     34.19112377	      9.00068919	     97.68246317	     92.10519007	     62.76457300
      0.03333330	     -2.95897859	     -0.49852768	     12.27703834	     -0.95454458	      1.26024333	     -0.07350359	      0.16864709	      2.68141851	     -5.66950370	      2.18431774	      0.03812354	      2.73899600	    -19.03496264	     -7.14442616	      1.18434254	      1.02524759	     10.87312910	      0.72357337	      0.01262874	      5.80051819	     -7.18349213	     -7.14442616	     -8.67230189	      1.12802491	      9.87563719	     34.47874993	      1.03559268	     77.25072044	     77.38997271	     78.77533933	     33.77365393	      9.52288236	     97.18305153	     91.80171051	     61.18392830
      0.03750000	     -2.72181960	     -0.45913908	     12.29569754	     -0.95450147	      1.26062489	     -0.07324067	     -0.17995706	      2.58132867	     -5.86327594	      2.09817607	      0.03662008	      2.72465874	    -18.73452634	     -7.30728837	      0.87163070	      1.12575155	     11.06179201	      0.68660089	      0.01198345	      5.63270621	     -7.67879309	     -7.30728837	     -8.79048864	      1.31227379	      9.68380066	     34.26738084	      1.11035091	     76.97958962	     77.61285078	     73.45298547	     33.22371457	      9.53324582	     97.09858863	     92.07261610	     60.32878123
      0.04166670	     -2.60719134	     -0.46917982	     12.24997993	     -0.94853584	      1.26055940	     -0.06876609	     -0.46212092	      2.63041335	     -5.99947888	      2.11715689	      0.03695136	      2.62997115	    -18.73549995	     -7.30766851	      0.62052800	      1.08664528	     10.92934111	      0.69319791	      0.01209859	      5.60053519	     -7.74878230	     -7.30766851	     -8.61265057	      1.42090032	      9.56121620	     33.83462031	      1.26119618	     77.05394747	     77.72781435	     73.46327787	     33.04589244	      9.58880054	     97.13601902	     92.08103184	     60.29557970
      0.04583330	     -2.64154430	     -0.53269423	     12.19767542	     -0.95463777	      1.26392034	     -0.06353720	     -0.49064682	      2.79606321	     -6.15231338	      1.98660499	      0.03467280	      2.54777526	    -18.70077544	     -7.30800130	      0.63866753	      0.93473591	     10.85522532	      0.65187879	      0.01137743	      5.49686961	     -7.77960376	     -7.30800130	     -8.63792870	      1.34678561	      9.67762690	     33.92329844	      1.52907468	     76.88765511	     77.84307601	     73.45286636	     33.14166360	      9.52333004	     97.02371823	     92.09194122	     60.25910626
      0.05000000	     -2.13968464	     -0.43510758	     12.38769533	     -0.95528479	      1.26080563	     -0.06358125	     -1.22853849	      2.96780281	     -6.34885817	      1.53626739	      0.02681292	      2.31004456	    -18.39253316	     -7.31702442	      0.09055789	      0.77992699	     11.26266769	      0.61391183	      0.01071478	      5.08192392	     -8.34833350	     -7.31702442	     -9.22273672	      1.22080294	      9.78510821	     33.26334239	      1.43534903	     75.64585661	     78.34716920	     72.88016922	     33.22235252	      9.65744244	     97.13904106	     92.50756169	     58.42681830
      0.05416670	     -2.08642014	     -0.45331023	     12.56196712	     -0.95544443	      1.25750845	     -0.06355630	     -1.41356235	      3.15812396	     -6.38886597	      1.17812068	      0.02056208	      2.16991532	    -18.34227462	     -7.32207541	      0.08488024	      0.63252729	     10.97662379	      0.61246780	      0.01068958	      5.32223500	     -7.80664534	     -7.32207541	     -9.18584844	      1.17472819	      9.79282227	     33.24750498	      1.54857915	     75.21001171	     78.36590320	     72.66130734	     33.49963600	      9.72667746	     97.21155011	     93.03439835	     58.28753926
      0.05833330	     -1.97458108	     -0.42235141	     12.83706061	     -0.94909861	      1.26111964	     -0.06852193	     -1.62885930	      3.19310498	     -6.40384220	      1.15782908	      0.02020793	      2.08941206	    -18.30873289	     -7.32234025	     -0.08942491	      0.57104641	     10.97420766	      0.63414754	      0.01106796	      5.27394767	     -7.83060362	     -7.32234025	     -8.93795088	      1.19383865	      9.73909719	     33.17357285	      1.57259874	     75.23253764	     78.44237253	     72.65302414	     33.35523597	      9.85252481	     97.32930709	     93.10790298	     58.27815955
      0.06250000	     -1.48296440	     -0.34579866	     13.10393810	     -0.94918070	      1.26157282	     -0.06865844	     -2.42865828	      3.22909100	     -7.20982327	      0.87331391	      0.01524220	      2.40073694	    -17.18234128	     -7.39175931	     -0.74167616	      0.51565029	     10.81199925	      0.55457366	      0.00967914	      5.50385889	     -7.32561873	     -7.39175931	     -9.27676065	      1.25823554	      9.80286061	     32.51328876	      1.20812713	     74.77027768	     78.77990643	     70.11947507	     33.11363043	      9.93759250	     97.70640067	     92.77929457	     58.06464944
      0.06666670	     -1.62526377	     -0.37580163	     13.20766439	     -0.95608735	      1.25841399	     -0.06383782	     -2.21722385	      3.26452652	     -6.99713998	      0.83376274	      0.01455190	      2.26914629	    -17.71264114	     -7.40351443	     -0.51299244	      0.51013186	     11.28384599	      0.53312056	      0.00930471	      5.20255426	     -8.24690338	     -7.40351443	     -9.07237201	      1.26180174	      9.91396810	     32.77056985	      0.75472662	     74.40428128	     79.03088893	     70.01225285	     33.50889296	      9.88226160	     97.51646764	     92.94433635	     57.31602173
      0.07083330	     -1.70382173	     -0.37893103	     13.26429433	     -0.96237790	      1.26226336	     -0.06805098	     -1.98126883	      3.18364940	     -7.03484969	      0.77679999	      0.01355772	      2.27929604	    -17.72238429	     -7.40386147	     -0.24384607	      0.60501570	     11.23068449	      0.50885203	      0.00888114	      5.12029607	     -8.23012836	     -7.40386147	     -9.19165675	      1.39300731	      9.81972935	     33.27798352	      0.25878071	     74.15099053	     78.93540765	     70.00084895	     33.68151366	      9.86206411	     97.27832588	     92.81244902	     57.26740030
      0.07500000	     -1.85757541	     -0.41062634	     13.22068783	     -0.96251779	      1.26216581	     -0.06831642	     -1.64407978	      3.09995532	     -6.96557151	      0.73104834	      0.01275920	      2.30312941	    -17.64642714	     -7.40523570	      0.11948094	      0.70336269	     11.16952188	      0.48576159	      0.00847814	      4.98789926	     -8.27003744	     -7.40523570	     -9.26271578	      1.52840787	      9.78772397	     33.76114034	     -0.25089134	     74.10271307	     79.15809437	     69.98716624	     33.74846474	      9.97086387	     96.80782741	     92.49092676	     57.10259032
